<svg xmlns="http://www.w3.org/2000/svg" viewBox="0 0 64 64">
  <defs>
    <radialGradient id="bg" cx="50%" cy="45%">
      <stop offset="0%" stop-color="#0f1a2e"/>
      <stop offset="100%" stop-color="#030506"/>
    </radialGradient>
    <linearGradient id="trunk" x1="0" y1="1" x2="0" y2="0">
      <stop offset="0%" stop-color="#2a3a5c"/>
      <stop offset="100%" stop-color="#5b8cff"/>
    </linearGradient>
  </defs>
  <rect width="64" height="64" rx="12" fill="url(#bg)"/>
  <!-- Roots -->
  <path d="M32 56 L20 62 M32 56 L32 64 M32 56 L44 62" stroke="#5b8cff" stroke-width="1.2" fill="none" stroke-linecap="round" opacity="0.6"/>
  <!-- Trunk -->
  <path d="M32 56 Q30 40 32 24 Q34 16 32 8" stroke="url(#trunk)" stroke-width="2.5" fill="none" stroke-linecap="round"/>
  <!-- Branches left -->
  <path d="M32 40 Q22 34 14 30" stroke="#5b8cff" stroke-width="1.2" fill="none" stroke-linecap="round"/>
  <path d="M32 32 Q20 24 10 16" stroke="#5b8cff" stroke-width="1" fill="none" stroke-linecap="round"/>
  <path d="M32 24 Q22 16 16 8" stroke="#5b8cff" stroke-width="0.9" fill="none" stroke-linecap="round"/>
  <!-- Branches right -->
  <path d="M32 40 Q42 34 50 30" stroke="#5b8cff" stroke-width="1.2" fill="none" stroke-linecap="round"/>
  <path d="M32 32 Q44 24 54 16" stroke="#5b8cff" stroke-width="1" fill="none" stroke-linecap="round"/>
  <path d="M32 24 Q42 16 48 8" stroke="#5b8cff" stroke-width="0.9" fill="none" stroke-linecap="round"/>
  <!-- Top crown -->
  <path d="M32 8 Q28 2 32 0 Q36 2 32 8" stroke="#7a6aff" stroke-width="1.2" fill="none" stroke-linecap="round"/>
  <!-- Nodes -->
  <circle cx="32" cy="56" r="1.5" fill="#7a6aff" opacity="0.8"/>
  <circle cx="14" cy="30" r="1.2" fill="#5b8cff" opacity="0.7"/>
  <circle cx="10" cy="16" r="1" fill="#5b8cff" opacity="0.6"/>
  <circle cx="16" cy="8" r="1" fill="#5b8cff" opacity="0.5"/>
  <circle cx="50" cy="30" r="1.2" fill="#5b8cff" opacity="0.7"/>
  <circle cx="54" cy="16" r="1" fill="#5b8cff" opacity="0.6"/>
  <circle cx="48" cy="8" r="1" fill="#5b8cff" opacity="0.5"/>
  <circle cx="32" cy="0" r="2" fill="#7a6aff" opacity="0.9"/>
  <circle cx="28" cy="3" r="1" fill="#7a6aff" opacity="0.6"/>
  <circle cx="36" cy="3" r="1" fill="#7a6aff" opacity="0.6"/>
</svg>
